<svg width="32" height="40" viewBox="0 0 32 40" fill="none" xmlns="http://www.w3.org/2000/svg">
<path fill-rule="evenodd" clip-rule="evenodd" d="M28.9993 0H3.00039C1.35053 0 0 1.68816 0 3.75072V36.2494C0 38.3117 1.35053 39.9999 3.00039 39.9999H28.9993C30.6492 39.9999 31.9997 38.3117 31.9997 36.2494L31.9999 3.75048C31.9999 1.68816 30.6494 0 28.9995 0H28.9993ZM18.039 11.494H21.4433V6.39049H18.039C15.4175 6.39049 13.2785 9.06337 13.2785 12.3447V14.8953H10.5565V19.9999H13.2781V33.6094H17.3612V19.9999H20.7622L21.4433 14.8953H17.361V12.3447C17.361 11.8829 17.6728 11.4934 18.0388 11.4934V11.4941H18.039V11.494Z" fill="#3B5998"/>
</svg>
