<svg width="32" height="40" viewBox="0 0 32 40" fill="none" xmlns="http://www.w3.org/2000/svg">
<path d="M16.0076 0.303223C9.42796 0.303223 7.50365 0.311708 7.1296 0.350495C5.77934 0.490798 4.93912 0.756556 4.02376 1.32625C3.31833 1.76413 2.76198 2.27171 2.2129 2.98322C1.21293 4.2808 0.606892 5.87716 0.387505 7.77474C0.280841 8.69595 0.249812 8.88383 0.243509 13.5893C0.241085 15.1578 0.243509 17.222 0.243509 19.9908C0.243509 28.209 0.250782 30.612 0.282296 31.0787C0.391383 32.7211 0.597438 33.7544 1.03379 34.8847C1.8677 37.0484 3.46038 38.6726 5.33669 39.2787C5.98637 39.4878 6.70392 39.6029 7.6251 39.6575C8.0154 39.6787 11.9935 39.6938 15.9739 39.6938C19.9544 39.6938 23.9349 39.6878 24.3155 39.6635C25.3821 39.6008 26.0015 39.4969 26.6863 39.2756C28.5748 38.6666 30.1384 37.0666 30.9892 34.8726C31.4171 33.7696 31.6341 32.6969 31.7323 31.1402C31.7536 30.8008 31.7626 25.3896 31.7626 19.9856C31.7626 14.5808 31.7529 9.17959 31.7315 8.84019C31.6321 7.25837 31.4152 6.19474 30.9735 5.0705C30.6111 4.15019 30.2087 3.46292 29.6244 2.76019C28.5818 1.51534 27.3067 0.757768 25.7872 0.483829C25.051 0.350798 24.9043 0.311404 21.1372 0.303223H16.0076Z" fill="url(#paint0_radial_2_1800)"/>
<path d="M16.0076 0.303223C9.42796 0.303223 7.50365 0.311708 7.1296 0.350495C5.77934 0.490798 4.93912 0.756556 4.02376 1.32625C3.31833 1.76413 2.76198 2.27171 2.2129 2.98322C1.21293 4.2808 0.606892 5.87716 0.387505 7.77474C0.280841 8.69595 0.249812 8.88383 0.243509 13.5893C0.241085 15.1578 0.243509 17.222 0.243509 19.9908C0.243509 28.209 0.250782 30.612 0.282296 31.0787C0.391383 32.7211 0.597438 33.7544 1.03379 34.8847C1.8677 37.0484 3.46038 38.6726 5.33669 39.2787C5.98637 39.4878 6.70392 39.6029 7.6251 39.6575C8.0154 39.6787 11.9935 39.6938 15.9739 39.6938C19.9544 39.6938 23.9349 39.6878 24.3155 39.6635C25.3821 39.6008 26.0015 39.4969 26.6863 39.2756C28.5748 38.6666 30.1384 37.0666 30.9892 34.8726C31.4171 33.7696 31.6341 32.6969 31.7323 31.1402C31.7536 30.8008 31.7626 25.3896 31.7626 19.9856C31.7626 14.5808 31.7529 9.17959 31.7315 8.84019C31.6321 7.25837 31.4152 6.19474 30.9735 5.0705C30.6111 4.15019 30.2087 3.46292 29.6244 2.76019C28.5818 1.51534 27.3067 0.757768 25.7872 0.483829C25.051 0.350798 24.9043 0.311404 21.1372 0.303223H16.0076Z" fill="url(#paint1_radial_2_1800)"/>
<path d="M16.0005 5.45459C12.8404 5.45459 12.4438 5.47186 11.2026 5.54247C9.96384 5.61338 9.11829 5.85853 8.37843 6.21823C7.61312 6.58974 6.96393 7.08671 6.31716 7.8955C5.66991 8.70398 5.27235 9.5155 4.97417 10.4719C4.6857 11.397 4.48934 12.4543 4.43358 14.0022C4.37807 15.5537 4.36353 16.0497 4.36353 20C4.36353 23.9503 4.37759 24.4446 4.43383 25.9961C4.49079 27.5446 4.68691 28.6016 4.97442 29.5264C5.27186 30.4831 5.66943 31.2946 6.31644 32.1031C6.96296 32.9122 7.61215 33.4103 8.37698 33.7819C9.11732 34.1416 9.96311 34.3867 11.2016 34.4576C12.4428 34.5282 12.8391 34.5455 15.9991 34.5455C19.1594 34.5455 19.5548 34.5282 20.796 34.4576C22.0347 34.3867 22.8813 34.1416 23.6216 33.7819C24.3867 33.4103 25.0349 32.9122 25.6814 32.1031C26.3287 31.2946 26.7262 30.4831 27.0244 29.5267C27.3105 28.6016 27.5068 27.5443 27.565 25.9964C27.6208 24.4449 27.6353 23.9503 27.6353 20C27.6353 16.0497 27.6208 15.554 27.565 14.0025C27.5068 12.454 27.3105 11.397 27.0244 10.4722C26.7262 9.5155 26.3287 8.70398 25.6814 7.8955C25.0342 7.08641 24.3869 6.58944 23.6209 6.21823C22.8791 5.85853 22.0331 5.61338 20.7943 5.54247C19.5531 5.47186 19.158 5.45459 15.9969 5.45459H16.0005ZM14.9567 8.0758C15.2665 8.0752 15.6122 8.0758 16.0005 8.0758C19.1073 8.0758 19.4756 8.08974 20.7024 8.15944C21.8369 8.22429 22.4527 8.46126 22.8628 8.66035C23.4059 8.92398 23.793 9.23914 24.2 9.74823C24.6073 10.2573 24.8594 10.7422 25.0708 11.421C25.23 11.9331 25.4199 12.7028 25.4715 14.121C25.5272 15.6543 25.5394 16.1149 25.5394 19.9967C25.5394 23.8785 25.5272 24.3391 25.4715 25.8725C25.4196 27.2907 25.23 28.0603 25.0708 28.5725C24.8599 29.2513 24.6073 29.7346 24.2 30.2434C23.7928 30.7525 23.4061 31.0676 22.8628 31.3313C22.4532 31.5313 21.8369 31.7676 20.7024 31.8325C19.4758 31.9022 19.1073 31.9173 16.0005 31.9173C12.8934 31.9173 12.5252 31.9022 11.2986 31.8325C10.1641 31.767 9.54834 31.53 9.13793 31.331C8.59491 31.0673 8.20705 30.7522 7.79978 30.2431C7.39252 29.734 7.14041 29.2503 6.92902 28.5713C6.76976 28.0591 6.57994 27.2894 6.52831 25.8713C6.47255 24.3379 6.4614 23.8773 6.4614 19.9931C6.4614 16.1088 6.47255 15.6507 6.52831 14.1173C6.58019 12.6991 6.76976 11.9294 6.92902 11.4167C7.13993 10.7379 7.39252 10.2531 7.79978 9.74398C8.20705 9.23489 8.59491 8.91974 9.13793 8.6555C9.5481 8.4555 10.1641 8.21914 11.2986 8.15398C12.372 8.09338 12.788 8.0752 14.9567 8.07217V8.0758ZM22.2117 10.491C21.4408 10.491 20.8154 11.2719 20.8154 12.2358C20.8154 13.1994 21.4408 13.9813 22.2117 13.9813C22.9826 13.9813 23.608 13.1994 23.608 12.2358C23.608 11.2722 22.9826 10.4903 22.2117 10.4903V10.491ZM16.0005 12.5303C12.7005 12.5303 10.0249 15.8749 10.0249 20C10.0249 24.1252 12.7005 27.4682 16.0005 27.4682C19.3005 27.4682 21.9751 24.1252 21.9751 20C21.9751 15.8749 19.3003 12.5303 16.0003 12.5303H16.0005ZM16.0005 15.1516C18.1425 15.1516 19.8792 17.3222 19.8792 20C19.8792 22.6776 18.1425 24.8485 16.0005 24.8485C13.8583 24.8485 12.1218 22.6776 12.1218 20C12.1218 17.3222 13.8583 15.1516 16.0005 15.1516V15.1516Z" fill="white"/>
<defs>
<radialGradient id="paint0_radial_2_1800" cx="0" cy="0" r="1" gradientUnits="userSpaceOnUse" gradientTransform="translate(8.615 42.7277) rotate(-90) scale(39.039 29.0545)">
<stop stop-color="#FFDD55"/>
<stop offset="0.1" stop-color="#FFDD55"/>
<stop offset="0.5" stop-color="#FF543E"/>
<stop offset="1" stop-color="#C837AB"/>
</radialGradient>
<radialGradient id="paint1_radial_2_1800" cx="0" cy="0" r="1" gradientUnits="userSpaceOnUse" gradientTransform="translate(-5.03736 3.14086) rotate(80.8999) scale(17.3293 57.9626)">
<stop stop-color="#3771C8"/>
<stop offset="0.128" stop-color="#3771C8"/>
<stop offset="1" stop-color="#6600FF" stop-opacity="0"/>
</radialGradient>
</defs>
</svg>
