<svg width="32" height="40" viewBox="0 0 32 40" fill="none" xmlns="http://www.w3.org/2000/svg">
<path fill-rule="evenodd" clip-rule="evenodd" d="M28.9993 0H3.00039C1.35053 0 0 1.68816 0 3.75072V36.2494C0 38.3117 1.35053 39.9999 3.00039 39.9999H28.9993C30.6492 39.9999 31.9997 38.3117 31.9997 36.2494L31.9999 3.75048C31.9999 1.68816 30.6494 0 28.9995 0H28.9993ZM13.6359 16.3055H16.9064V18.4013L16.9537 18.4014C17.4091 17.38 18.5228 16.3056 20.1835 16.3056C23.637 16.3054 24.2758 18.9921 24.2758 22.4867V29.6056L20.865 29.6057V23.295C20.865 21.7906 20.8401 19.854 19.0916 19.854C17.3157 19.854 17.0437 21.4915 17.0437 23.1853V29.6057H13.636V16.3054L13.6359 16.3055ZM11.2714 12.6111C11.2714 13.8348 10.4769 14.8278 9.49787 14.8278C8.51886 14.8278 7.72407 13.8347 7.72407 12.6111C7.72407 11.3873 8.51886 10.3942 9.49787 10.3942C10.4769 10.3942 11.2714 11.3873 11.2714 12.6111ZM7.72407 16.3055H11.2714V29.6058H7.72407V16.3055Z" fill="#0077B5"/>
</svg>
