<svg width="17" height="17" viewBox="0 0 17 17" fill="none">
<path d="M16.2188 14.8828L11.6142 10.2775C12.3563 9.25782 12.7554 8.02886 12.7542 6.76773C12.7542 3.46686 10.0686 0.78125 6.76773 0.78125C3.46686 0.78125 0.78125 3.46686 0.78125 6.76773C0.78125 10.0686 3.46686 12.7542 6.76773 12.7542C8.02886 12.7554 9.25782 12.3563 10.2775 11.6142L14.8828 16.2188L16.2188 14.8828ZM6.76773 10.8635C5.95756 10.8636 5.16557 10.6234 4.49191 10.1733C3.81824 9.72327 3.29317 9.08354 2.9831 8.33506C2.67303 7.58657 2.59188 6.76294 2.74992 5.96834C2.90796 5.17373 3.29808 4.44384 3.87096 3.87096C4.44384 3.29808 5.17373 2.90796 5.96834 2.74992C6.76294 2.59188 7.58657 2.67303 8.33506 2.9831C9.08354 3.29317 9.72327 3.81824 10.1733 4.49191C10.6234 5.16557 10.8636 5.95756 10.8635 6.76773C10.8622 7.85361 10.4303 8.89464 9.66247 9.66247C8.89464 10.4303 7.85361 10.8622 6.76773 10.8635Z" fill="black"/>
</svg>
