<svg width="32" height="40" viewBox="0 0 32 40" fill="none" xmlns="http://www.w3.org/2000/svg">
<path fill-rule="evenodd" clip-rule="evenodd" d="M28.9993 0H3.00039C1.35053 0 0 1.68816 0 3.75072V36.2494C0 38.3117 1.35053 39.9999 3.00039 39.9999H28.9993C30.6492 39.9999 31.9997 38.3117 31.9997 36.2494L31.9999 3.75048C31.9999 1.68816 30.6494 0 28.9995 0H28.9993ZM25.7786 12.4185C25.0597 12.8205 24.285 13.0875 23.4762 13.2066C24.3049 12.5862 24.9386 11.6033 25.2411 10.4328C24.4666 11.0055 23.6058 11.4253 22.6938 11.65C21.9603 10.6759 20.9187 10.0704 19.7648 10.0704C17.5491 10.0704 15.7552 12.3141 15.7552 15.082C15.7552 15.4727 15.7899 15.8548 15.8578 16.2234C12.5239 16.0122 9.56823 14.0171 7.58967 10.9818C7.23476 11.7472 7.04689 12.6174 7.04689 13.5023V13.5029C7.04689 15.2409 7.75287 16.7779 8.8299 17.6743C8.17258 17.6499 7.55434 17.4208 7.01156 17.0495V17.1121C7.01156 19.5426 8.39358 21.5706 10.23 22.029C9.89348 22.1433 9.53838 22.2063 9.17252 22.2063C8.91332 22.2063 8.66362 22.1729 8.41537 22.1165C8.9283 24.1069 10.4088 25.558 12.1622 25.6003C10.7874 26.9466 9.06078 27.7482 7.17841 27.7482C6.85354 27.7482 6.53703 27.7234 6.2209 27.676C8.00026 29.1032 10.1081 29.9296 12.3726 29.9296C19.75 29.9296 23.7878 22.2874 23.7878 15.6612C23.7878 15.441 23.7838 15.2277 23.7765 15.012C24.5601 14.3113 25.2394 13.4272 25.7772 12.4206L25.779 12.4183L25.7786 12.4186V12.4185Z" fill="#1DA1F2"/>
</svg>
